<svg width="44" height="48" viewBox="0 0 44 48" fill="none" xmlns="http://www.w3.org/2000/svg">
<path d="M32.2418 37.0347C31.9947 37.0347 31.7578 37.1328 31.583 37.3075C31.4083 37.4823 31.3102 37.7192 31.3102 37.9663C31.3102 38.2134 31.4083 38.4504 31.583 38.6251C31.7578 38.7998 31.9947 38.898 32.2418 38.898C32.4889 38.898 32.7259 38.7998 32.9006 38.6251C33.0753 38.4504 33.1735 38.2134 33.1735 37.9663C33.1735 37.7192 33.0753 37.4823 32.9006 37.3075C32.7259 37.1328 32.4889 37.0347 32.2418 37.0347Z" fill="#333333"/>
<path d="M34.5342 34.023L30.1077 32.5497L28.5195 29.3712C29.9651 27.8942 30.9278 26.0127 31.2798 23.9762L31.477 22.7889H33.1713C34.7118 22.7889 35.9663 21.5365 35.9663 19.996V14.1309C35.9617 10.4284 34.4888 6.87886 31.8705 4.261C29.2522 1.64314 25.7025 0.170703 22 0.16669C20.1659 0.16555 18.3495 0.525967 16.6548 1.22733C14.9601 1.92869 13.4202 2.95724 12.1233 4.25416C10.8264 5.55108 9.79784 7.09093 9.09648 8.78565C8.39511 10.4804 8.0347 12.2967 8.03584 14.1309V19.996C8.03584 21.2094 8.81367 22.245 9.89917 22.6307V23.7205C9.89917 25.2589 11.1493 26.5155 12.6898 26.5155H13.5067C13.9939 27.5748 14.661 28.5417 15.4783 29.3734L13.8923 32.5475L9.46584 34.023C4.32217 35.739 0.586838 41.1557 0.586838 46.9017C0.586838 47.4174 1.005 47.8334 1.5185 47.8334H42.4815C42.7286 47.8334 42.9656 47.7352 43.1403 47.5605C43.315 47.3858 43.4132 47.1488 43.4132 46.9017C43.4132 41.1557 39.6778 35.739 34.5342 34.023ZM34.1008 19.996C34.1008 20.2427 34.003 20.4794 33.8287 20.654C33.6545 20.8287 33.4181 20.9271 33.1713 20.9277H31.7522C31.9883 19.0947 32.1443 17.1447 32.2072 15.2229L32.2137 15.0625H34.103V19.996H34.1008ZM10.8287 20.9277C10.5816 20.9277 10.3446 20.8295 10.1699 20.6548C9.99516 20.4801 9.89701 20.2431 9.89701 19.996V15.0625H11.7863L11.7972 15.355V15.3659C11.8622 17.2357 12.0182 19.1359 12.25 20.9277H10.8287ZM12.692 24.6522C12.4449 24.6522 12.2079 24.554 12.0332 24.3793C11.8585 24.2046 11.7603 23.9676 11.7603 23.7205V22.7889H12.523L12.7202 23.9784C12.7592 24.2037 12.8047 24.429 12.8588 24.65H12.6898L12.692 24.6522ZM11.7603 13.2014H9.93167C10.1644 10.1606 11.537 7.31996 13.7748 5.2481C16.0126 3.17623 18.9504 2.02607 22 2.02786C25.048 2.03162 27.9827 3.18367 30.2193 5.25443C32.456 7.3252 33.8302 10.1626 34.0683 13.2014H32.2397C32.1725 8.05986 27.9865 3.89119 22.8342 3.89119H21.1658C16.0157 3.89119 11.8275 8.05986 11.7625 13.2014H11.7603ZM21.1658 5.75236H22.8342C27.005 5.75236 30.3807 9.16486 30.3785 13.3314C30.3785 13.6239 30.3785 13.8795 30.372 14.1114V14.1222L29.2063 13.9554C26.0235 13.4942 23.074 12.0194 20.7953 9.74986C20.6212 9.57565 20.3852 9.4775 20.1388 9.47686C18.9 9.4791 17.6768 9.75463 16.5567 10.2838C15.4365 10.813 14.4469 11.5828 13.6583 12.5384C13.8509 10.68 14.724 8.95859 16.1096 7.70537C17.4952 6.45216 19.2954 5.75575 21.1637 5.75019L21.1658 5.75236ZM14.7893 24.6522C14.3235 23.1009 13.7883 18.54 13.6713 15.6172L14.9237 13.9445C15.4953 13.1866 16.2248 12.5619 17.0616 12.1137C17.8985 11.6655 18.8228 11.4045 19.7705 11.3489C22.2953 13.7439 25.5001 15.2978 28.9442 15.797L30.3135 15.992C30.2263 17.8972 30.0441 19.7968 29.7675 21.6839C29.6808 22.2624 29.6158 22.635 29.4425 23.6707C28.9507 26.6282 26.7428 29.304 23.8308 30.0299C22.6287 30.3295 21.3713 30.3295 20.1692 30.0299C18.3513 29.5749 16.683 28.3182 15.6083 26.5134H17.5042C17.8898 27.5967 18.9233 28.3767 20.1388 28.3767H22C22.741 28.3767 23.4516 28.0823 23.9756 27.5584C24.4996 27.0344 24.7939 26.3238 24.7939 25.5828C24.7939 24.8418 24.4996 24.1311 23.9756 23.6072C23.4516 23.0832 22.741 22.7889 22 22.7889H20.1367C19.5591 22.7894 18.9959 22.9688 18.5245 23.3025C18.0531 23.6362 17.6967 24.1077 17.5042 24.6522H14.7893ZM20.0587 31.9149C21.1987 32.155 22.3735 32.1814 23.5232 31.9929L21.8765 33.7327L20.0608 31.9149H20.0587ZM20.5982 35.0869L17.645 38.2069C16.8315 36.6501 16.1348 35.0351 15.5607 33.3752L16.67 31.1565L20.5982 35.0869ZM27.174 30.8402L28.4393 33.3752C27.8654 35.0366 27.1687 36.6531 26.355 38.2112L23.1938 35.0479L27.174 30.8424V30.8402ZM19.205 25.5817C19.205 25.3346 19.3032 25.0976 19.4779 24.9229C19.6526 24.7482 19.8896 24.65 20.1367 24.65H22C22.2471 24.65 22.4841 24.7482 22.6588 24.9229C22.8335 25.0976 22.9317 25.3346 22.9317 25.5817C22.9317 25.8288 22.8335 26.0658 22.6588 26.2405C22.4841 26.4152 22.2471 26.5134 22 26.5134H20.1367C19.8896 26.5134 19.6526 26.4152 19.4779 26.2405C19.3032 26.0658 19.205 25.8288 19.205 25.5817ZM2.48484 45.97C2.85317 41.3594 5.92334 37.1669 10.053 35.7889L13.9725 34.4845C14.6897 36.4692 15.5802 38.3997 16.6223 40.2327L16.6267 40.2414C17.3893 41.5804 18.2473 42.889 19.1747 44.1327L20.323 45.9722H2.48484V45.97ZM22 45.1445L20.7368 43.1165C19.9644 42.0894 19.2484 41.0211 18.5918 39.9164L21.9155 36.4064L25.4125 39.9034C24.769 40.9867 24.0627 42.044 23.3087 43.0494C23.2632 43.1122 23.3282 43.0147 22 45.1445ZM23.677 45.9744L24.821 44.1349C25.7548 42.8869 26.6193 41.5674 27.3885 40.2132L27.4015 40.1872V40.185C28.4328 38.3694 29.3125 36.4584 30.0253 34.4867L33.9448 35.791C38.0745 37.169 41.1447 41.3615 41.513 45.9744H23.677Z" fill="#333333"/>
<path d="M38.7158 42.2044C38.0893 40.9533 37.1887 39.8594 36.0812 39.0043C35.9849 38.9236 35.8733 38.8633 35.7531 38.8269C35.6329 38.7905 35.5066 38.7787 35.3817 38.7924C35.2569 38.806 35.1361 38.8448 35.0266 38.9063C34.9171 38.9678 34.8212 39.0508 34.7446 39.1504C34.668 39.2499 34.6123 39.3639 34.5809 39.4855C34.5495 39.6071 34.543 39.7338 34.5618 39.858C34.5806 39.9821 34.6243 40.1012 34.6903 40.2081C34.7563 40.3149 34.8432 40.4074 34.9458 40.4798C35.8255 41.1579 36.5535 42.0398 37.0497 43.0364C37.1647 43.2492 37.3579 43.4088 37.5886 43.4817C37.8192 43.5546 38.0691 43.5349 38.2854 43.4268C38.5018 43.3188 38.6677 43.1308 38.748 42.9027C38.8283 42.6746 38.8168 42.4242 38.7158 42.2044Z" fill="#333333"/>
</svg>
