<svg width="52" height="52" viewBox="0 0 52 52" fill="none" xmlns="http://www.w3.org/2000/svg">
<path d="M43.8738 19.4999C43.8755 16.4876 43.1159 13.5236 41.6655 10.8834C40.2151 8.24312 38.1209 6.01226 35.5776 4.39798C33.0342 2.7837 30.1242 1.83838 27.1177 1.64981C24.1112 1.46124 21.1058 2.03554 18.3807 3.31937C15.6556 4.6032 13.2991 6.55491 11.5302 8.99323C9.76129 11.4315 8.63727 14.2774 8.26257 17.2664C7.88787 20.2554 8.27465 23.2906 9.38697 26.0901C10.4993 28.8896 12.3011 31.3626 14.625 33.2793V48.7499C14.625 49.0269 14.6958 49.2993 14.8307 49.5413C14.9656 49.7832 15.1601 49.9866 15.3957 50.1322C15.6313 50.2778 15.9003 50.3608 16.177 50.3733C16.4537 50.3857 16.729 50.3272 16.9768 50.2033L25.9985 45.6919L35.0234 50.2033C35.2711 50.3271 35.5464 50.3856 35.8231 50.3731C36.0998 50.3607 36.3687 50.2777 36.6043 50.1321C36.8399 49.9865 37.0344 49.7831 37.1692 49.5412C37.3041 49.2993 37.3749 49.0269 37.375 48.7499V33.2775C39.4077 31.6028 41.0446 29.499 42.1682 27.117C43.2918 24.7349 43.8743 22.1337 43.8738 19.4999ZM11.3738 19.4999C11.3738 16.6074 12.2315 13.7798 13.8385 11.3747C15.4455 8.96966 17.7296 7.09514 20.402 5.98821C23.0744 4.88127 26.015 4.59165 28.8519 5.15596C31.6889 5.72027 34.2948 7.11316 36.3402 9.15851C38.3855 11.2039 39.7784 13.8098 40.3427 16.6468C40.907 19.4837 40.6174 22.4243 39.5105 25.0967C38.4036 27.7691 36.529 30.0532 34.124 31.6602C31.7189 33.2672 28.8913 34.1249 25.9988 34.1249C22.1213 34.1206 18.4039 32.5784 15.6621 29.8366C12.9203 27.0948 11.3781 23.3774 11.3738 19.4999ZM34.125 46.1209L26.7251 42.4214C26.4995 42.3085 26.2506 42.2498 25.9983 42.2498C25.746 42.2498 25.4972 42.3085 25.2716 42.4214L17.875 46.1205V35.4201C20.3906 36.7053 23.1752 37.3753 26.0001 37.3751C28.825 37.3749 31.6096 36.7045 34.125 35.4188V46.1209ZM25.9988 30.8749C28.2485 30.8749 30.4478 30.2078 32.3184 28.9579C34.189 27.708 35.6469 25.9315 36.5079 23.853C37.3688 21.7745 37.5941 19.4873 37.1552 17.2808C36.7163 15.0743 35.6329 13.0474 34.0421 11.4566C32.4513 9.86578 30.4244 8.78242 28.2179 8.34351C26.0114 7.9046 23.7242 8.12987 21.6457 8.99081C19.5672 9.85176 17.7907 11.3097 16.5408 13.1803C15.2909 15.0509 14.6238 17.2502 14.6238 19.4999C14.6271 22.5157 15.8267 25.4071 17.9592 27.5395C20.0916 29.672 22.983 30.8716 25.9988 30.8749ZM25.9988 11.3749C27.6057 11.3749 29.1766 11.8515 30.5128 12.7443C31.8489 13.637 32.8903 14.906 33.5053 16.3906C34.1202 17.8753 34.2811 19.509 33.9676 21.0851C33.6541 22.6611 32.8803 24.1089 31.744 25.2452C30.6077 26.3815 29.16 27.1553 27.5839 27.4688C26.0078 27.7823 24.3741 27.6214 22.8894 27.0065C21.4048 26.3915 20.1358 25.3501 19.2431 24.014C18.3503 22.6778 17.8738 21.1069 17.8738 19.4999C17.8762 17.3458 18.733 15.2806 20.2562 13.7574C21.7794 12.2342 23.8446 11.3774 25.9988 11.3749Z" fill="#333333"/>
</svg>
