<?xml version="1.0" standalone="no"?>
<!DOCTYPE svg PUBLIC "-//W3C//DTD SVG 20010904//EN"
 "http://www.w3.org/TR/2001/REC-SVG-20010904/DTD/svg10.dtd">
<svg version="1.0" xmlns="http://www.w3.org/2000/svg"
 width="2100.000000pt" height="2100.000000pt" viewBox="0 0 2100.000000 2100.000000"
 preserveAspectRatio="xMidYMid meet">
<metadata>
Created by potrace 1.14, written by Peter Selinger 2001-2017
</metadata>
<g transform="translate(0.000000,2100.000000) scale(0.100000,-0.100000)"
fill="#000000" stroke="none">
<path d="M10469 16383 c-13 -10 -33 -23 -44 -29 -11 -6 -227 -134 -480 -284
-253 -151 -470 -278 -482 -284 -13 -6 -23 -14 -23 -18 0 -5 -4 -8 -9 -8 -5 0
-135 -75 -288 -166 -153 -92 -293 -174 -310 -182 -18 -9 -33 -19 -33 -24 0 -4
-5 -8 -10 -8 -6 0 -27 -11 -48 -24 -20 -13 -156 -94 -302 -180 -146 -86 -272
-161 -280 -166 -8 -5 -42 -25 -75 -45 -33 -19 -78 -46 -100 -60 -22 -14 -47
-28 -55 -32 -8 -3 -38 -20 -66 -37 -61 -38 -47 -29 -279 -167 -104 -63 -280
-167 -390 -233 -202 -121 -394 -234 -451 -266 -17 -10 -87 -52 -155 -93 -121
-73 -894 -533 -954 -567 -16 -10 -47 -27 -67 -40 l-38 -22 0 -2953 0 -2952
208 -124 c114 -68 216 -129 227 -136 11 -7 29 -17 40 -23 11 -5 38 -22 60 -35
22 -14 47 -28 55 -32 8 -3 29 -16 45 -28 17 -12 38 -25 48 -28 10 -4 42 -22
70 -40 29 -19 131 -80 227 -137 96 -57 267 -158 380 -225 113 -67 351 -209
530 -315 179 -106 352 -209 385 -229 33 -20 68 -40 77 -46 10 -5 59 -35 110
-65 51 -30 97 -57 103 -60 5 -3 21 -12 35 -21 20 -13 541 -324 697 -415 30
-18 202 -119 265 -157 17 -10 86 -52 154 -93 68 -40 127 -74 131 -74 3 0 14
-6 22 -14 9 -8 32 -22 51 -33 19 -10 119 -69 221 -130 103 -62 331 -198 508
-303 l322 -190 262 156 c144 86 278 166 297 176 19 11 40 24 45 28 6 4 30 19
55 32 25 14 94 55 154 92 60 36 110 66 111 66 2 0 43 24 92 53 95 58 383 230
436 261 72 41 488 289 727 431 140 84 271 162 290 172 19 11 80 47 135 80 55
33 172 103 260 155 88 52 246 146 350 208 105 62 204 121 220 130 17 10 183
109 370 220 187 112 353 210 369 219 17 9 35 20 40 24 12 8 134 81 514 306
l242 143 0 2953 0 2953 -82 49 c-45 26 -100 59 -123 71 -22 13 -62 38 -90 54
-27 17 -63 39 -80 48 -16 9 -100 59 -185 110 -85 51 -164 98 -175 104 -11 7
-56 33 -100 59 -107 64 -112 67 -170 103 -27 16 -57 33 -65 37 -8 4 -30 16
-48 27 -69 42 -458 274 -767 457 -176 105 -342 203 -368 219 -27 16 -63 37
-80 48 -284 166 -528 312 -549 327 -15 10 -31 19 -35 19 -4 0 -23 11 -42 24
-33 22 -561 336 -606 361 -11 5 -31 18 -45 26 -72 47 -603 359 -610 359 -5 0
-10 4 -12 8 -1 4 -32 25 -68 45 -36 21 -72 42 -80 47 -8 5 -60 36 -115 68 -55
33 -184 110 -287 171 -103 61 -189 111 -191 111 -2 0 -15 -8 -28 -17z"/>
</g>
</svg>
