<svg width="52" height="52" viewBox="0 0 52 52" fill="none" xmlns="http://www.w3.org/2000/svg">
<path d="M36.4 18.2C37.0896 18.2 37.7509 17.9261 38.2385 17.4385C38.7261 16.9509 39 16.2896 39 15.6C39 14.9104 38.7261 14.2491 38.2385 13.7615C37.7509 13.2739 37.0896 13 36.4 13C35.7104 13 35.0491 13.2739 34.5615 13.7615C34.0739 14.2491 33.8 14.9104 33.8 15.6C33.8 16.2896 34.0739 16.9509 34.5615 17.4385C35.0491 17.9261 35.7104 18.2 36.4 18.2Z" fill="#333333"/>
<path d="M28.938 5.20007C28.2503 5.19542 27.5685 5.32722 26.9321 5.58786C26.2956 5.84849 25.7172 6.23278 25.2304 6.71847L7.85716 24.0475C7.37334 24.5301 6.98939 25.1033 6.72726 25.7344C6.46512 26.3655 6.32995 27.042 6.32947 27.7254C6.32899 28.4088 6.4632 29.0855 6.72444 29.717C6.98568 30.3484 7.36882 30.9222 7.85196 31.4055L20.7194 44.2703C21.6945 45.2451 23.0169 45.7928 24.3958 45.7928C25.7746 45.7928 27.097 45.2451 28.0722 44.2703L45.3128 27.0323C45.7969 26.5483 46.1807 25.9735 46.4422 25.3408C46.7036 24.7081 46.8376 24.03 46.8364 23.3455L46.8156 10.4755C46.8135 9.10398 46.2698 7.78882 45.3027 6.81636C44.3356 5.84389 43.0234 5.29287 41.652 5.28327L28.938 5.20007ZM27.066 8.55927C27.3094 8.31643 27.5986 8.12428 27.9168 7.99396C28.235 7.86365 28.5759 7.79774 28.9198 7.80007L41.6338 7.88327C42.3197 7.88807 42.976 8.16376 43.4596 8.65027C43.9432 9.13679 44.2149 9.7947 44.2156 10.4807L44.2364 23.3507C44.2366 23.6925 44.1695 24.0311 44.0388 24.3469C43.908 24.6628 43.7163 24.9498 43.4746 25.1915L26.2366 42.4321C25.9951 42.6738 25.7083 42.8656 25.3927 42.9964C25.0771 43.1273 24.7387 43.1946 24.3971 43.1946C24.0554 43.1946 23.7171 43.1273 23.4014 42.9964C23.0858 42.8656 22.799 42.6738 22.5576 42.4321L9.69016 29.5673C9.44859 29.3256 9.25702 29.0387 9.1264 28.723C8.99578 28.4073 8.92867 28.0689 8.92891 27.7272C8.92916 27.3855 8.99674 27.0473 9.12781 26.7317C9.25887 26.4162 9.45085 26.1296 9.69276 25.8883L27.066 8.55927Z" fill="#333333"/>
</svg>
